<?xml version="1.0" standalone="no"?>
<!DOCTYPE svg PUBLIC "-//W3C//DTD SVG 20010904//EN"
 "http://www.w3.org/TR/2001/REC-SVG-20010904/DTD/svg10.dtd">
<svg version="1.0" xmlns="http://www.w3.org/2000/svg"
 width="1324.000000pt" height="1324.000000pt" viewBox="0 0 1324.000000 1324.000000"
 preserveAspectRatio="xMidYMid meet">
<metadata>
Created by potrace 1.11, written by Peter Selinger 2001-2013
</metadata>
<g transform="translate(0.000000,1324.000000) scale(0.100000,-0.100000)"
fill="#000000" stroke="none">
<path d="M6308 10455 c-2 -2 -57 -6 -123 -9 -66 -4 -140 -8 -165 -10 -206 -17
-267 -23 -312 -31 -9 -2 -48 -7 -85 -10 -37 -4 -77 -9 -88 -11 -11 -2 -40 -7
-65 -10 -25 -3 -47 -7 -50 -9 -3 -2 -30 -6 -60 -10 -30 -4 -143 -25 -250 -47
-107 -22 -202 -41 -210 -42 -9 -1 -21 -5 -28 -10 -6 -4 -12 -5 -12 -3 0 3 -33
-4 -72 -14 -40 -11 -80 -21 -88 -23 -8 -2 -51 -14 -95 -25 -44 -12 -84 -23
-90 -25 -5 -1 -35 -10 -65 -19 -30 -9 -58 -16 -62 -17 -52 -6 -662 -231 -815
-301 -74 -34 -161 -73 -243 -111 -41 -19 -79 -35 -84 -36 -5 0 -12 -4 -15 -9
-7 -11 -75 -43 -89 -43 -6 0 -12 -4 -14 -8 -1 -4 -41 -28 -88 -51 -46 -24 -98
-52 -115 -62 -16 -10 -37 -22 -45 -26 -56 -26 -401 -237 -457 -279 -17 -13
-34 -24 -37 -24 -3 0 -35 -21 -72 -47 -36 -27 -76 -55 -89 -63 -49 -33 -121
-85 -139 -102 -11 -10 -23 -18 -27 -18 -4 0 -14 -6 -21 -13 -7 -7 -31 -26 -53
-42 -22 -17 -45 -34 -51 -40 -7 -5 -35 -28 -64 -50 -29 -22 -60 -48 -69 -57
-8 -10 -19 -18 -23 -18 -4 0 -18 -10 -30 -22 -13 -13 -45 -41 -72 -63 -27 -22
-61 -51 -76 -65 -15 -14 -63 -56 -106 -95 -88 -77 -439 -426 -524 -521 -93
-102 -123 -137 -175 -199 -27 -33 -57 -69 -67 -80 -36 -42 -93 -113 -152 -190
-33 -44 -68 -89 -78 -99 -10 -11 -18 -23 -18 -27 0 -4 -6 -14 -13 -21 -28 -29
-117 -156 -117 -167 0 -6 -3 -11 -7 -11 -5 0 -21 -21 -38 -48 -16 -26 -32 -49
-35 -52 -6 -6 -79 -115 -95 -142 -5 -10 -34 -57 -64 -105 -30 -49 -54 -90 -52
-92 1 -2 -1 -7 -6 -10 -5 -3 -19 -23 -31 -44 l-21 -37 19 -33 c11 -17 23 -40
26 -49 4 -10 10 -18 15 -18 5 0 9 -4 9 -10 0 -21 293 -471 312 -478 4 -2 8
-10 8 -18 0 -8 4 -14 8 -14 4 0 16 -15 27 -32 10 -18 21 -35 24 -38 3 -3 33
-41 65 -85 32 -44 66 -86 74 -92 9 -7 13 -13 9 -13 -4 0 4 -12 18 -27 13 -16
70 -84 126 -153 57 -69 108 -130 114 -137 5 -6 39 -44 75 -84 36 -40 91 -99
123 -132 31 -33 57 -61 57 -62 0 -3 236 -235 290 -286 25 -23 63 -58 85 -79
22 -20 63 -56 90 -80 28 -23 73 -62 100 -86 50 -43 77 -65 128 -106 16 -13 37
-31 48 -40 10 -10 21 -18 24 -18 5 0 46 -34 76 -62 10 -9 27 -22 39 -28 12 -6
29 -18 38 -27 9 -8 44 -34 77 -59 33 -24 65 -48 72 -54 7 -5 16 -10 22 -10 5
0 11 -3 13 -7 8 -20 456 -313 477 -313 5 0 11 -4 13 -8 3 -9 211 -127 408
-233 14 -7 31 -14 38 -15 8 -1 21 -8 30 -16 10 -7 33 -20 52 -29 19 -9 73 -35
120 -57 188 -90 437 -194 660 -275 133 -49 340 -118 369 -123 13 -3 31 -9 40
-13 9 -5 19 -9 24 -10 4 -1 8 -1 10 -2 1 0 9 -2 17 -4 8 -2 74 -20 145 -40 72
-20 141 -38 155 -41 14 -3 50 -11 80 -19 30 -8 67 -16 83 -19 59 -12 82 -17
139 -31 32 -7 61 -14 63 -14 3 -1 6 -1 8 -2 1 0 13 -2 27 -4 23 -3 113 -19
166 -29 24 -5 66 -11 139 -22 28 -3 59 -8 70 -11 21 -4 69 -10 145 -18 25 -2
63 -6 85 -9 383 -51 1022 -60 1470 -21 128 11 170 15 225 21 30 4 66 8 80 9
86 10 146 17 164 21 26 5 69 12 116 19 19 2 49 7 65 10 17 3 44 7 60 10 17 3
41 8 55 11 14 3 34 6 45 8 11 2 34 6 50 9 17 4 44 9 60 12 17 2 45 9 64 15 19
5 37 8 39 5 3 -3 11 0 19 6 7 6 13 9 13 6 0 -3 24 1 53 9 28 8 65 16 81 19 15
3 61 15 102 26 40 11 81 22 91 24 17 4 54 15 234 68 97 29 373 122 404 136 11
5 70 28 130 50 61 23 123 48 138 56 16 8 32 15 37 15 5 0 48 18 95 40 47 22
88 40 90 40 5 0 236 108 255 120 8 5 56 29 105 54 50 25 122 64 160 85 39 22
98 54 133 72 34 18 62 36 62 41 0 4 5 8 11 8 6 0 57 28 113 63 55 35 109 66
119 70 9 3 17 11 17 17 0 5 6 10 14 10 8 0 21 6 28 13 7 6 51 37 98 66 47 30
91 62 98 70 6 8 12 11 12 5 0 -5 4 -4 8 2 4 6 30 26 57 45 53 36 247 180 255
189 3 3 23 18 45 35 22 16 42 32 45 35 3 3 28 23 55 45 28 22 57 46 66 55 9 8
27 24 40 34 32 26 88 74 184 160 105 93 494 482 570 570 33 39 69 80 80 92 29
32 97 112 155 183 19 24 47 57 62 75 15 17 28 34 28 37 0 3 10 17 21 30 44 49
196 259 301 414 59 88 111 165 115 170 5 6 15 23 23 39 29 57 35 66 42 66 5 0
8 7 8 15 0 8 5 15 10 15 6 0 10 4 10 10 0 5 18 39 40 75 l40 65 -87 142 c-47
79 -90 145 -95 146 -4 2 -8 7 -8 12 0 10 -117 189 -137 208 -7 7 -13 18 -13
23 0 5 -7 17 -16 27 -8 9 -44 58 -80 107 -35 50 -67 95 -72 100 -4 6 -30 39
-57 75 -28 36 -56 71 -63 78 -7 8 -25 30 -40 50 -25 34 -50 64 -97 118 -11 13
-36 42 -55 65 -33 41 -56 66 -175 199 -59 65 -445 452 -445 446 0 -2 -17 12
-37 32 -89 86 -417 362 -432 362 -5 0 -11 4 -13 8 -1 5 -41 38 -88 73 -47 35
-89 67 -95 72 -66 50 -106 77 -114 77 -5 0 -11 4 -13 8 -5 13 -164 122 -177
122 -6 0 -11 5 -11 10 0 6 -6 10 -14 10 -8 0 -16 4 -18 9 -3 8 -343 221 -353
221 -2 0 -42 22 -87 48 -81 47 -151 85 -235 127 -23 12 -49 28 -58 35 -8 7
-15 10 -15 7 0 -4 -45 16 -100 43 -55 28 -104 50 -110 50 -5 0 -10 5 -10 10 0
6 -6 10 -13 10 -8 0 -27 6 -43 14 -16 8 -63 28 -104 46 -41 18 -88 38 -105 45
-16 8 -59 25 -95 39 -36 14 -78 30 -95 37 -16 7 -32 13 -35 14 -8 3 -43 16
-80 30 -64 25 -155 57 -170 60 -19 4 -109 34 -135 44 -11 5 -56 19 -100 31
-44 13 -100 29 -125 37 -25 8 -52 16 -60 18 -8 2 -60 15 -115 29 -55 15 -109
29 -120 31 -49 11 -75 17 -80 16 -2 0 -19 5 -37 10 -18 5 -44 11 -58 14 -14 3
-36 7 -50 10 -14 3 -36 8 -50 11 -14 2 -47 9 -75 14 -27 6 -86 17 -129 25 -44
9 -84 19 -89 22 -6 3 -7 1 -3 -5 5 -8 2 -10 -9 -6 -29 11 -212 39 -254 39 -23
0 -41 3 -41 6 0 3 -20 6 -44 8 -25 1 -55 4 -68 6 -13 3 -54 7 -93 11 -38 3
-97 7 -130 10 -33 3 -87 7 -120 10 -73 6 -782 14 -787 9z m967 -1230 c39 -2
86 -7 105 -10 19 -2 58 -7 85 -11 84 -10 109 -13 135 -19 14 -3 45 -8 70 -11
25 -3 54 -8 65 -11 11 -2 34 -6 52 -8 18 -2 36 -6 41 -9 5 -3 31 -8 58 -12 27
-3 52 -8 55 -10 3 -2 21 -6 40 -9 19 -3 70 -15 114 -26 44 -11 91 -23 105 -25
14 -3 56 -14 95 -26 38 -11 80 -21 92 -23 12 -2 27 -6 32 -10 6 -3 21 -8 33
-11 28 -6 39 -9 58 -17 8 -3 60 -20 115 -37 96 -30 349 -121 390 -140 11 -5
70 -30 130 -56 147 -62 349 -157 353 -166 2 -5 9 -8 16 -8 7 0 46 -18 86 -40
40 -22 76 -40 80 -40 4 0 13 -7 20 -15 7 -9 15 -14 17 -11 4 4 179 -95 263
-149 19 -12 60 -38 90 -57 30 -19 88 -57 128 -84 41 -27 81 -53 90 -59 10 -5
19 -12 22 -15 3 -3 46 -34 95 -70 50 -35 96 -70 103 -77 7 -7 17 -13 21 -13 4
0 24 -16 44 -35 20 -19 40 -35 43 -35 5 0 163 -128 196 -159 9 -9 47 -43 84
-76 184 -163 429 -408 559 -561 37 -43 75 -86 108 -124 7 -8 40 -49 73 -90 32
-41 69 -86 82 -100 12 -14 22 -28 22 -31 0 -3 11 -19 25 -35 44 -51 42 -57
-45 -169 -44 -57 -86 -110 -93 -117 -7 -7 -30 -36 -52 -63 -21 -28 -42 -52
-45 -55 -3 -3 -23 -25 -44 -50 -182 -210 -429 -458 -621 -625 -32 -27 -63 -55
-69 -60 -6 -6 -33 -28 -61 -50 -27 -22 -57 -47 -65 -55 -26 -27 -300 -230
-309 -230 -5 0 -11 -4 -13 -9 -2 -5 -61 -48 -133 -95 -71 -47 -134 -89 -140
-94 -26 -20 -198 -122 -206 -122 -5 0 -9 -5 -9 -12 0 -6 -3 -8 -6 -5 -4 3 -18
-3 -32 -13 -13 -11 -30 -20 -37 -20 -7 0 -23 -8 -36 -18 -13 -11 -62 -39 -109
-62 -47 -24 -88 -48 -91 -53 -3 -5 -9 -8 -13 -7 -4 1 -55 -22 -114 -50 -59
-29 -127 -61 -152 -72 -25 -11 -61 -28 -80 -36 -19 -9 -37 -17 -40 -17 -10 -3
-66 -26 -95 -40 -16 -8 -59 -25 -95 -38 -36 -13 -74 -28 -85 -32 -11 -4 -27
-9 -35 -11 -8 -2 -23 -7 -35 -13 -18 -9 -205 -72 -342 -115 -53 -16 -352 -95
-388 -102 -11 -2 -83 -17 -161 -33 -78 -17 -159 -33 -180 -36 -21 -2 -75 -11
-119 -19 -44 -8 -83 -12 -87 -9 -5 2 -8 -1 -8 -7 0 -6 -4 -9 -9 -6 -5 4 -42 2
-83 -3 -141 -19 -238 -29 -353 -36 -85 -6 -349 -17 -362 -16 -15 1 -19 1 -143
1 -201 1 -455 15 -635 35 -16 2 -57 6 -90 9 -33 3 -71 8 -85 11 -14 3 -41 7
-60 10 -19 2 -66 9 -105 16 -38 6 -78 11 -87 11 -10 0 -18 3 -18 7 0 4 -10 7
-22 6 -13 -1 -39 2 -58 7 -19 5 -46 11 -60 13 -14 2 -36 6 -50 9 -14 4 -34 8
-45 10 -11 3 -51 12 -90 21 -38 9 -79 18 -90 20 -11 2 -21 4 -22 4 -2 1 -6 2
-10 2 -5 1 -18 5 -31 10 -12 5 -33 11 -45 13 -52 12 -277 77 -327 96 -30 11
-60 20 -66 20 -6 0 -29 8 -50 17 -22 9 -43 18 -49 19 -16 4 -128 44 -150 53
-11 5 -67 28 -125 51 -58 23 -124 51 -147 61 -46 21 -95 42 -103 44 -13 3
-334 164 -395 198 -38 22 -93 52 -122 68 -164 90 -617 385 -643 419 -3 4 -12
11 -21 16 -9 5 -33 23 -54 39 -21 17 -77 61 -124 98 -47 38 -90 74 -96 81 -5
7 -15 15 -21 17 -11 4 -102 83 -223 194 -143 132 -420 418 -499 516 -15 18
-43 51 -62 74 -58 65 -113 134 -188 234 l-70 93 71 92 c194 247 355 431 553
630 135 135 358 341 407 375 12 8 38 30 57 47 19 18 67 56 105 86 39 29 72 55
75 58 7 8 67 50 72 50 1 0 3 -80 4 -178 1 -155 5 -224 19 -322 8 -56 15 -96
20 -115 25 -108 37 -163 38 -177 1 -10 5 -18 9 -18 4 0 8 -8 8 -17 0 -21 23
-90 33 -99 4 -4 7 -16 7 -26 0 -10 4 -26 9 -36 10 -18 23 -50 26 -68 4 -14
108 -227 143 -289 15 -27 50 -83 77 -124 28 -41 55 -81 60 -90 6 -8 15 -20 20
-26 6 -7 21 -27 35 -45 14 -18 33 -42 43 -54 10 -11 32 -37 49 -56 66 -77 172
-182 264 -260 91 -77 279 -207 354 -245 19 -10 38 -22 41 -27 3 -5 9 -10 12
-9 4 0 50 -20 104 -45 137 -63 166 -76 228 -95 22 -7 44 -17 49 -21 6 -4 20
-8 33 -8 13 0 31 -4 41 -9 46 -25 293 -75 437 -88 136 -13 545 -7 545 7 0 3
15 5 33 6 31 0 107 11 137 19 8 2 29 7 45 10 17 3 55 12 85 20 30 9 64 18 74
20 36 8 151 48 218 76 36 15 69 25 72 21 3 -3 6 -1 6 5 0 10 36 26 53 24 4 -1
7 4 7 9 0 5 3 9 8 8 10 -2 124 55 160 81 17 11 33 21 37 21 9 0 197 126 221
148 10 10 28 24 40 32 91 65 275 247 379 375 110 137 224 313 287 445 46 95
81 174 84 190 2 9 10 32 19 53 8 20 15 38 14 39 0 2 5 17 11 33 21 54 68 223
76 275 2 14 8 52 14 85 5 33 12 74 14 90 2 17 5 30 6 30 4 0 13 206 13 300 0
112 -9 258 -18 298 -2 12 -7 38 -9 57 -3 19 -10 60 -16 90 -6 30 -13 66 -16
80 -3 14 -8 34 -11 45 -4 11 -8 25 -9 30 -30 152 -176 504 -243 588 -8 9 -11
17 -7 17 3 0 -18 37 -48 82 -54 80 -61 104 -28 94 10 -3 49 -8 87 -11z"/>
</g>
</svg>
