<?xml version="1.0" encoding="UTF-8" standalone="no"?>
<svg width="210px" height="60px" viewBox="0 0 210 60" version="1.1" xmlns="http://www.w3.org/2000/svg" xmlns:xlink="http://www.w3.org/1999/xlink" xmlns:sketch="http://www.bohemiancoding.com/sketch/ns">
    <!-- Generator: Sketch 3.1.1 (8761) - http://www.bohemiancoding.com/sketch -->
    <title>button-appstore</title>
    <desc>Created with Sketch.</desc>
    <defs></defs>
    <g id="Page-1" stroke="none" stroke-width="1" fill="none" fill-rule="evenodd" sketch:type="MSPage">
        <g id="button-appstore" sketch:type="MSLayerGroup">
            <g id="Group" sketch:type="MSShapeGroup">
                <path d="M210,53.9855528 C210,57.3084171 207.296571,60 203.952772,60 L6.05511409,60 C2.712893,60 0,57.3084171 0,53.9855528 L0,6.02229899 C0,2.70100503 2.712893,0 6.05511409,0 L203.951195,0 C207.296571,0 209.998423,2.70100503 209.998423,6.02229899 L210,53.9855528 L210,53.9855528 Z" id="Shape" fill="#000000"></path>
                <g transform="translate(20.526316, 9.473684)" id="Shape" fill="#FFFFFF">
                    <path d="M27.0442105,21.7642105 C26.9984211,16.6752632 31.2110526,14.1994737 31.4036842,14.0842105 C29.0178947,10.6057895 25.32,10.1305263 24.0205263,10.0926316 C20.9147368,9.76578947 17.9021053,11.9510526 16.32,11.9510526 C14.7063158,11.9510526 12.27,10.1242105 9.64421053,10.1778947 C6.26526316,10.23 3.10421053,12.1863158 1.37052632,15.2242105 C-2.20736842,21.4184211 0.461052632,30.5210526 3.88894737,35.5278947 C5.60368421,37.98 7.60736842,40.7178947 10.23,40.6215789 C12.7957895,40.5157895 13.7542105,38.9857895 16.8505263,38.9857895 C19.9184211,38.9857895 20.8184211,40.6215789 23.4931579,40.56 C26.2468421,40.5157895 27.9805263,38.0968421 29.6352632,35.6226316 C31.6168421,32.8121053 32.4126316,30.0442105 32.4442105,29.9021053 C32.3794737,29.88 27.0963158,27.8636842 27.0442105,21.7642105 L27.0442105,21.7642105 Z"></path>
                    <path d="M21.9915789,6.79894737 C23.3715789,5.07315789 24.3157895,2.72526316 24.0536842,0.342631579 C22.0563158,0.431052632 19.5584211,1.72421053 18.12,3.41210526 C16.8473684,4.89947368 15.7105263,7.33736842 16.0042105,9.63 C18.2478947,9.79736842 20.5515789,8.49789474 21.9915789,6.79894737 L21.9915789,6.79894737 Z"></path>
                </g>
                <g transform="translate(66.315789, 28.421053)" id="Shape" fill="#FFFFFF">
                    <path d="M18.3868421,21.3221053 L14.8010526,21.3221053 L12.8368421,15.15 L6.00947368,15.15 L4.13842105,21.3221053 L0.647368421,21.3221053 L7.41157895,0.309473684 L11.5894737,0.309473684 L18.3868421,21.3221053 L18.3868421,21.3221053 Z M12.2447368,12.5605263 L10.4684211,7.07368421 C10.2805263,6.51315789 9.92842105,5.19315789 9.40894737,3.11526316 L9.34578947,3.11526316 C9.13894737,4.00894737 8.80578947,5.32894737 8.34789474,7.07368421 L6.60315789,12.5605263 L12.2447368,12.5605263 L12.2447368,12.5605263 Z"></path>
                    <path d="M35.7821053,13.56 C35.7821053,16.1368421 35.0857895,18.1736842 33.6931579,19.6689474 C32.4457895,21 30.8968421,21.6647368 29.0478947,21.6647368 C27.0521053,21.6647368 25.6184211,20.9478947 24.7452632,19.5142105 L24.6821053,19.5142105 L24.6821053,27.4957895 L21.3157895,27.4957895 L21.3157895,11.1584211 C21.3157895,9.53842105 21.2731579,7.87578947 21.1910526,6.17052632 L24.1515789,6.17052632 L24.3394737,8.57210526 L24.4026316,8.57210526 C25.5252632,6.76263158 27.2289474,5.85947368 29.5152632,5.85947368 C31.3026316,5.85947368 32.7947368,6.56526316 33.9884211,7.97842105 C35.1852632,9.39315789 35.7821053,11.2531579 35.7821053,13.56 L35.7821053,13.56 Z M32.3526316,13.6831579 C32.3526316,12.2084211 32.0210526,10.9926316 31.3547368,10.0357895 C30.6268421,9.03789474 29.6494737,8.53894737 28.4242105,8.53894737 C27.5936842,8.53894737 26.8389474,8.81684211 26.1647368,9.36473684 C25.4889474,9.91736842 25.0468421,10.6389474 24.84,11.5326316 C24.7357895,11.9494737 24.6836842,12.2905263 24.6836842,12.5589474 L24.6836842,15.0852632 C24.6836842,16.1873684 25.0215789,17.1173684 25.6973684,17.8768421 C26.3731579,18.6363158 27.2510526,19.0152632 28.3310526,19.0152632 C29.5989474,19.0152632 30.5857895,18.5257895 31.2915789,17.55 C31.9989474,16.5726316 32.3526316,15.2842105 32.3526316,13.6831579 L32.3526316,13.6831579 Z"></path>
                    <path d="M53.2089474,13.56 C53.2089474,16.1368421 52.5126316,18.1736842 51.1184211,19.6689474 C49.8726316,21 48.3236842,21.6647368 46.4747368,21.6647368 C44.4789474,21.6647368 43.0452632,20.9478947 42.1736842,19.5142105 L42.1105263,19.5142105 L42.1105263,27.4957895 L38.7442105,27.4957895 L38.7442105,11.1584211 C38.7442105,9.53842105 38.7015789,7.87578947 38.6194737,6.17052632 L41.58,6.17052632 L41.7678947,8.57210526 L41.8310526,8.57210526 C42.9521053,6.76263158 44.6557895,5.85947368 46.9436842,5.85947368 C48.7294737,5.85947368 50.2215789,6.56526316 51.4184211,7.97842105 C52.6105263,9.39315789 53.2089474,11.2531579 53.2089474,13.56 L53.2089474,13.56 Z M49.7794737,13.6831579 C49.7794737,12.2084211 49.4463158,10.9926316 48.78,10.0357895 C48.0521053,9.03789474 47.0778947,8.53894737 45.8510526,8.53894737 C45.0189474,8.53894737 44.2657895,8.81684211 43.59,9.36473684 C42.9142105,9.91736842 42.4736842,10.6389474 42.2668421,11.5326316 C42.1642105,11.9494737 42.1105263,12.2905263 42.1105263,12.5589474 L42.1105263,15.0852632 C42.1105263,16.1873684 42.4484211,17.1173684 43.1210526,17.8768421 C43.7968421,18.6347368 44.6747368,19.0152632 45.7578947,19.0152632 C47.0257895,19.0152632 48.0126316,18.5257895 48.7184211,17.55 C49.4257895,16.5726316 49.7794737,15.2842105 49.7794737,13.6831579 L49.7794737,13.6831579 Z"></path>
                    <path d="M72.6931579,15.4294737 C72.6931579,17.2168421 72.0726316,18.6710526 70.8268421,19.7936842 C69.4578947,21.0205263 67.5521053,21.6331579 65.1031579,21.6331579 C62.8421053,21.6331579 61.0294737,21.1973684 59.6573684,20.3242105 L60.4373684,17.5184211 C61.9152632,18.4121053 63.5368421,18.8605263 65.3036842,18.8605263 C66.5715789,18.8605263 67.5584211,18.5731579 68.2673684,18.0015789 C68.9731579,17.43 69.3252632,16.6626316 69.3252632,15.7057895 C69.3252632,14.8531579 69.0347368,14.1347368 68.4521053,13.5521053 C67.8726316,12.9694737 66.9047368,12.4278947 65.5531579,11.9273684 C61.8742105,10.5552632 60.0363158,8.54526316 60.0363158,5.90210526 C60.0363158,4.17473684 60.6805263,2.75842105 61.9705263,1.65631579 C63.2557895,0.552631579 64.9705263,0.00157894737 67.1147368,0.00157894737 C69.0268421,0.00157894737 70.6152632,0.334736842 71.8831579,0.999473684 L71.0415789,3.74368421 C69.8573684,3.09947368 68.5184211,2.77736842 67.02,2.77736842 C65.8357895,2.77736842 64.9105263,3.06947368 64.2473684,3.65052632 C63.6868421,4.17 63.4057895,4.80315789 63.4057895,5.55315789 C63.4057895,6.38368421 63.7263158,7.07052632 64.3705263,7.61052632 C64.9310526,8.10947368 65.9494737,8.64947368 67.4273684,9.23210526 C69.2352632,9.96 70.5631579,10.8110526 71.4173684,11.7868421 C72.2684211,12.7594737 72.6931579,13.9768421 72.6931579,15.4294737 L72.6931579,15.4294737 Z"></path>
                    <path d="M83.8231579,8.69684211 L80.1126316,8.69684211 L80.1126316,16.0531579 C80.1126316,17.9242105 80.7663158,18.8589474 82.0768421,18.8589474 C82.6784211,18.8589474 83.1773684,18.8068421 83.5721053,18.7026316 L83.6652632,21.2589474 C83.0021053,21.5068421 82.1289474,21.6315789 81.0473684,21.6315789 C79.7178947,21.6315789 78.6789474,21.2257895 77.9289474,20.4157895 C77.1821053,19.6042105 76.8063158,18.2431579 76.8063158,16.3310526 L76.8063158,8.69368421 L74.5957895,8.69368421 L74.5957895,6.16736842 L76.8063158,6.16736842 L76.8063158,3.39315789 L80.1126316,2.39526316 L80.1126316,6.16736842 L83.8231579,6.16736842 L83.8231579,8.69684211 L83.8231579,8.69684211 Z"></path>
                    <path d="M100.564737,13.6215789 C100.564737,15.9505263 99.8984211,17.8626316 98.5689474,19.3578947 C97.1747368,20.8973684 95.3242105,21.6647368 93.0173684,21.6647368 C90.7942105,21.6647368 89.0242105,20.9273684 87.7042105,19.4526316 C86.3842105,17.9778947 85.7242105,16.1163158 85.7242105,13.8726316 C85.7242105,11.5247368 86.4031579,9.60157895 87.7657895,8.10631579 C89.1252632,6.60947368 90.96,5.86105263 93.2668421,5.86105263 C95.49,5.86105263 97.2789474,6.59842105 98.6289474,8.07473684 C99.9205263,9.50684211 100.564737,11.3557895 100.564737,13.6215789 L100.564737,13.6215789 Z M97.0721053,13.7305263 C97.0721053,12.3331579 96.7736842,11.1347368 96.1689474,10.1352632 C95.4631579,8.92578947 94.4542105,8.32263158 93.1468421,8.32263158 C91.7936842,8.32263158 90.7657895,8.92736842 90.06,10.1352632 C89.4552632,11.1363158 89.1568421,12.3536842 89.1568421,13.7936842 C89.1568421,15.1910526 89.4552632,16.3894737 90.06,17.3873684 C90.7878947,18.5968421 91.8047368,19.2 93.1168421,19.2 C94.4021053,19.2 95.4110526,18.5842105 96.1389474,17.3557895 C96.7594737,16.3373684 97.0721053,15.1263158 97.0721053,13.7305263 L97.0721053,13.7305263 Z"></path>
                    <path d="M111.506842,9.13105263 C111.173684,9.06947368 110.818421,9.03789474 110.445789,9.03789474 C109.261579,9.03789474 108.345789,9.48473684 107.701579,10.38 C107.141053,11.1694737 106.86,12.1673684 106.86,13.3721053 L106.86,21.3221053 L103.495263,21.3221053 L103.526842,10.9421053 C103.526842,9.19578947 103.484211,7.60578947 103.400526,6.17210526 L106.332632,6.17210526 L106.455789,9.07105263 L106.548947,9.07105263 C106.904211,8.07473684 107.464737,7.27263158 108.232105,6.67105263 C108.982105,6.12947368 109.792105,5.85947368 110.665263,5.85947368 C110.976316,5.85947368 111.257368,5.88157895 111.506842,5.92105263 L111.506842,9.13105263 L111.506842,9.13105263 Z"></path>
                    <path d="M126.562105,13.0294737 C126.562105,13.6326316 126.522632,14.1410526 126.438947,14.5563158 L116.34,14.5563158 C116.379474,16.0531579 116.867368,17.1978947 117.805263,17.9873684 C118.656316,18.6931579 119.756842,19.0468421 121.108421,19.0468421 C122.603684,19.0468421 123.967895,18.8084211 125.194737,18.33 L125.722105,20.6668421 C124.288421,21.2921053 122.595789,21.6031579 120.642632,21.6031579 C118.293158,21.6031579 116.448947,20.9115789 115.106842,19.53 C113.767895,18.1484211 113.096842,16.2931579 113.096842,13.9657895 C113.096842,11.6810526 113.720526,9.77842105 114.969474,8.26105263 C116.276842,6.64105263 118.043684,5.83105263 120.266842,5.83105263 C122.450526,5.83105263 124.103684,6.64105263 125.226316,8.26105263 C126.115263,9.54789474 126.562105,11.1394737 126.562105,13.0294737 L126.562105,13.0294737 Z M123.352105,12.1563158 C123.374211,11.1584211 123.154737,10.2963158 122.698421,9.56842105 C122.115789,8.63210526 121.220526,8.16473684 120.015789,8.16473684 C118.915263,8.16473684 118.02,8.62105263 117.336316,9.53684211 C116.775789,10.2647368 116.442632,11.1378947 116.34,12.1547368 L123.352105,12.1547368 L123.352105,12.1563158 Z"></path>
                </g>
                <g transform="translate(69.473684, 11.052632)" id="Shape" fill="#FFFFFF">
                    <path d="M7.97368421,4.75105263 C7.97368421,6.60947368 7.41631579,8.00842105 6.30315789,8.94789474 C5.27210526,9.81473684 3.80684211,10.2489474 1.90894737,10.2489474 C0.967894737,10.2489474 0.162631579,10.2078947 -0.511578947,10.1257895 L-0.511578947,-0.0284210526 C0.367894737,-0.170526316 1.31526316,-0.243157895 2.33842105,-0.243157895 C4.14631579,-0.243157895 5.50894737,0.15 6.42789474,0.936315789 C7.45736842,1.82526316 7.97368421,3.09631579 7.97368421,4.75105263 L7.97368421,4.75105263 Z M6.22894737,4.79684211 C6.22894737,3.59210526 5.91,2.66842105 5.27210526,2.02421053 C4.63421053,1.38157895 3.70263158,1.05947368 2.47578947,1.05947368 C1.95473684,1.05947368 1.51105263,1.09421053 1.14315789,1.16684211 L1.14315789,8.88631579 C1.34684211,8.91789474 1.71947368,8.93210526 2.26105263,8.93210526 C3.52736842,8.93210526 4.50473684,8.58 5.19315789,7.87578947 C5.88157895,7.17157895 6.22894737,6.14526316 6.22894737,4.79684211 L6.22894737,4.79684211 Z"></path>
                    <path d="M17.2247368,6.37421053 C17.2247368,7.51894737 16.8978947,8.45684211 16.2442105,9.19263158 C15.5589474,9.94894737 14.6510526,10.3263158 13.5173684,10.3263158 C12.4247368,10.3263158 11.5547368,9.96473684 10.9057895,9.23842105 C10.2584211,8.51368421 9.93473684,7.59947368 9.93473684,6.49736842 C9.93473684,5.34473684 10.2678947,4.39894737 10.9373684,3.66473684 C11.6068421,2.93052632 12.5068421,2.56263158 13.6405263,2.56263158 C14.7331579,2.56263158 15.6110526,2.92421053 16.2757895,3.64894737 C16.9073684,4.35315789 17.2247368,5.26263158 17.2247368,6.37421053 L17.2247368,6.37421053 Z M15.5084211,6.42789474 C15.5084211,5.74105263 15.36,5.15210526 15.0647368,4.66105263 C14.7173684,4.06736842 14.2231579,3.77052632 13.5805263,3.77052632 C12.9157895,3.77052632 12.4105263,4.06736842 12.0631579,4.66105263 C11.7663158,5.15210526 11.6194737,5.75052632 11.6194737,6.45789474 C11.6194737,7.14473684 11.7678947,7.73368421 12.0631579,8.22473684 C12.4215789,8.81842105 12.9205263,9.11526316 13.5647368,9.11526316 C14.1963158,9.11526316 14.6921053,8.81368421 15.0489474,8.20894737 C15.3552632,7.70842105 15.5084211,7.11473684 15.5084211,6.42789474 L15.5084211,6.42789474 Z"></path>
                    <path d="M29.6289474,2.71421053 L27.3,10.1573684 L25.7842105,10.1573684 L24.8194737,6.92526316 C24.5747368,6.11842105 24.3757895,5.31631579 24.2210526,4.52052632 L24.1910526,4.52052632 C24.0473684,5.33842105 23.8484211,6.13894737 23.5926316,6.92526316 L22.5678947,10.1573684 L21.0347368,10.1573684 L18.8447368,2.71421053 L20.5452632,2.71421053 L21.3868421,6.25263158 C21.5905263,7.08947368 21.7578947,7.88684211 21.8921053,8.64157895 L21.9221053,8.64157895 C22.0452632,8.01947368 22.2489474,7.22684211 22.5363158,6.26842105 L23.5926316,2.71578947 L24.9410526,2.71578947 L25.9531579,6.19263158 C26.1978947,7.04052632 26.3968421,7.85684211 26.55,8.64315789 L26.5957895,8.64315789 C26.7078947,7.87736842 26.8768421,7.06105263 27.1010526,6.19263158 L28.0042105,2.71578947 L29.6289474,2.71578947 L29.6289474,2.71421053 Z"></path>
                    <path d="M38.2073684,10.1573684 L36.5526316,10.1573684 L36.5526316,5.89421053 C36.5526316,4.58052632 36.0536842,3.92368421 35.0526316,3.92368421 C34.5615789,3.92368421 34.1652632,4.10368421 33.8573684,4.46526316 C33.5526316,4.82684211 33.3978947,5.25315789 33.3978947,5.74105263 L33.3978947,10.1557895 L31.7431579,10.1557895 L31.7431579,4.84105263 C31.7431579,4.18736842 31.7226316,3.47842105 31.6831579,2.71105263 L33.1373684,2.71105263 L33.2147368,3.87473684 L33.2605263,3.87473684 C33.4531579,3.51315789 33.7405263,3.21473684 34.1178947,2.97631579 C34.5663158,2.69842105 35.0684211,2.55789474 35.6178947,2.55789474 C36.3126316,2.55789474 36.8905263,2.78210526 37.35,3.23210526 C37.9215789,3.78315789 38.2073684,4.60578947 38.2073684,5.69842105 L38.2073684,10.1573684 L38.2073684,10.1573684 Z"></path>
                    <path d="M42.7705263,10.1573684 L41.1173684,10.1573684 L41.1173684,-0.701052632 L42.7705263,-0.701052632 L42.7705263,10.1573684 L42.7705263,10.1573684 Z"></path>
                    <path d="M52.5126316,6.37421053 C52.5126316,7.51894737 52.1857895,8.45684211 51.5321053,9.19263158 C50.8468421,9.94894737 49.9373684,10.3263158 48.8052632,10.3263158 C47.7110526,10.3263158 46.8410526,9.96473684 46.1936842,9.23842105 C45.5463158,8.51368421 45.2226316,7.59947368 45.2226316,6.49736842 C45.2226316,5.34473684 45.5557895,4.39894737 46.2252632,3.66473684 C46.8947368,2.93052632 47.7947368,2.56263158 48.9268421,2.56263158 C50.0210526,2.56263158 50.8973684,2.92421053 51.5636842,3.64894737 C52.1952632,4.35315789 52.5126316,5.26263158 52.5126316,6.37421053 L52.5126316,6.37421053 Z M50.7947368,6.42789474 C50.7947368,5.74105263 50.6463158,5.15210526 50.3510526,4.66105263 C50.0052632,4.06736842 49.5094737,3.77052632 48.8684211,3.77052632 C48.2021053,3.77052632 47.6968421,4.06736842 47.3510526,4.66105263 C47.0542105,5.15210526 46.9073684,5.75052632 46.9073684,6.45789474 C46.9073684,7.14473684 47.0557895,7.73368421 47.3510526,8.22473684 C47.7094737,8.81842105 48.2084211,9.11526316 48.8526316,9.11526316 C49.4842105,9.11526316 49.9784211,8.81368421 50.3352632,8.20894737 C50.6431579,7.70842105 50.7947368,7.11473684 50.7947368,6.42789474 L50.7947368,6.42789474 Z"></path>
                    <path d="M60.5210526,10.1573684 L59.0352632,10.1573684 L58.9121053,9.3 L58.8663158,9.3 C58.3578947,9.98368421 57.6331579,10.3263158 56.6921053,10.3263158 C55.9894737,10.3263158 55.4210526,10.1005263 54.9931579,9.65210526 C54.6047368,9.24473684 54.4105263,8.73789474 54.4105263,8.13631579 C54.4105263,7.22684211 54.7894737,6.53368421 55.5521053,6.05368421 C56.3131579,5.57368421 57.3836842,5.33842105 58.7621053,5.34947368 L58.7621053,5.21052632 C58.7621053,4.23 58.2473684,3.74052632 57.2163158,3.74052632 C56.4821053,3.74052632 55.8347368,3.92526316 55.2757895,4.29157895 L54.9394737,3.20526316 C55.6310526,2.77736842 56.4852632,2.56263158 57.4926316,2.56263158 C59.4378947,2.56263158 60.4136842,3.58894737 60.4136842,5.64157895 L60.4136842,8.38263158 C60.4136842,9.12631579 60.45,9.71842105 60.5210526,10.1573684 L60.5210526,10.1573684 Z M58.8031579,7.59947368 L58.8031579,6.45157895 C56.9778947,6.42 56.0652632,6.92052632 56.0652632,7.95157895 C56.0652632,8.34 56.1694737,8.63052632 56.3826316,8.82473684 C56.5957895,9.01894737 56.8673684,9.11526316 57.1910526,9.11526316 C57.5542105,9.11526316 57.8936842,9 58.2031579,8.77105263 C58.5142105,8.54052632 58.7052632,8.24842105 58.7763158,7.89 C58.7936842,7.80947368 58.8031579,7.71157895 58.8031579,7.59947368 L58.8031579,7.59947368 Z"></path>
                    <path d="M69.9236842,10.1573684 L68.4552632,10.1573684 L68.3778947,8.96210526 L68.3321053,8.96210526 C67.8631579,9.87157895 67.0642105,10.3263158 65.9415789,10.3263158 C65.0447368,10.3263158 64.2978947,9.97421053 63.7057895,9.27 C63.1136842,8.56578947 62.8184211,7.65157895 62.8184211,6.52894737 C62.8184211,5.32421053 63.1389474,4.34842105 63.7831579,3.60315789 C64.4068421,2.90842105 65.1710526,2.56105263 66.0805263,2.56105263 C67.08,2.56105263 67.7794737,2.89736842 68.1773684,3.57157895 L68.2089474,3.57157895 L68.2089474,-0.701052632 L69.8652632,-0.701052632 L69.8652632,8.15210526 C69.8652632,8.87684211 69.8842105,9.54473684 69.9236842,10.1573684 L69.9236842,10.1573684 Z M68.2089474,7.01842105 L68.2089474,5.77736842 C68.2089474,5.56263158 68.1931579,5.38894737 68.1631579,5.25631579 C68.07,4.85842105 67.8694737,4.52368421 67.5647368,4.25368421 C67.2568421,3.98368421 66.8857895,3.84789474 66.4578947,3.84789474 C65.8405263,3.84789474 65.3573684,4.09263158 65.0021053,4.58368421 C64.65,5.07473684 64.4715789,5.70157895 64.4715789,6.46736842 C64.4715789,7.20315789 64.6405263,7.8 64.98,8.25947368 C65.3384211,8.74894737 65.8215789,8.99368421 66.4263158,8.99368421 C66.9694737,8.99368421 67.4036842,8.79 67.7336842,8.38105263 C68.0526316,8.00368421 68.2089474,7.54894737 68.2089474,7.01842105 L68.2089474,7.01842105 Z"></path>
                    <path d="M84.0757895,6.37421053 C84.0757895,7.51894737 83.7489474,8.45684211 83.0952632,9.19263158 C82.41,9.94894737 81.5036842,10.3263158 80.3684211,10.3263158 C79.2773684,10.3263158 78.4073684,9.96473684 77.7568421,9.23842105 C77.1094737,8.51368421 76.7857895,7.59947368 76.7857895,6.49736842 C76.7857895,5.34473684 77.1189474,4.39894737 77.7884211,3.66473684 C78.4578947,2.93052632 79.3578947,2.56263158 80.4931579,2.56263158 C81.5842105,2.56263158 82.4636842,2.92421053 83.1268421,3.64894737 C83.7584211,4.35315789 84.0757895,5.26263158 84.0757895,6.37421053 L84.0757895,6.37421053 Z M82.3610526,6.42789474 C82.3610526,5.74105263 82.2126316,5.15210526 81.9173684,4.66105263 C81.5684211,4.06736842 81.0757895,3.77052632 80.4315789,3.77052632 C79.7684211,3.77052632 79.2631579,4.06736842 78.9142105,4.66105263 C78.6173684,5.15210526 78.4705263,5.75052632 78.4705263,6.45789474 C78.4705263,7.14473684 78.6189474,7.73368421 78.9142105,8.22473684 C79.2726316,8.81842105 79.7715789,9.11526316 80.4157895,9.11526316 C81.0473684,9.11526316 81.5447368,8.81368421 81.9015789,8.20894737 C82.2063158,7.70842105 82.3610526,7.11473684 82.3610526,6.42789474 L82.3610526,6.42789474 Z"></path>
                    <path d="M92.9731579,10.1573684 L91.32,10.1573684 L91.32,5.89421053 C91.32,4.58052632 90.8210526,3.92368421 89.8184211,3.92368421 C89.3273684,3.92368421 88.9310526,4.10368421 88.6247368,4.46526316 C88.3184211,4.82684211 88.1652632,5.25315789 88.1652632,5.74105263 L88.1652632,10.1557895 L86.5089474,10.1557895 L86.5089474,4.84105263 C86.5089474,4.18736842 86.49,3.47842105 86.4505263,2.71105263 L87.9031579,2.71105263 L87.9805263,3.87473684 L88.0263158,3.87473684 C88.2205263,3.51315789 88.5078947,3.21473684 88.8836842,2.97631579 C89.3336842,2.69842105 89.8342105,2.55789474 90.3852632,2.55789474 C91.0784211,2.55789474 91.6563158,2.78210526 92.1157895,3.23210526 C92.6889474,3.78315789 92.9731579,4.60578947 92.9731579,5.69842105 L92.9731579,10.1573684 L92.9731579,10.1573684 Z"></path>
                    <path d="M104.109474,3.95368421 L102.287368,3.95368421 L102.287368,7.56947368 C102.287368,8.48842105 102.611053,8.94789474 103.252105,8.94789474 C103.548947,8.94789474 103.795263,8.92263158 103.989474,8.87052632 L104.032105,10.1257895 C103.705263,10.2489474 103.275789,10.3105263 102.746842,10.3105263 C102.093158,10.3105263 101.584737,10.1115789 101.216842,9.71368421 C100.847368,9.31578947 100.664211,8.64631579 100.664211,7.70684211 L100.664211,3.95368421 L99.5763158,3.95368421 L99.5763158,2.71421053 L100.664211,2.71421053 L100.664211,1.35 L102.285789,0.860526316 L102.285789,2.71263158 L104.107895,2.71263158 L104.107895,3.95368421 L104.109474,3.95368421 Z"></path>
                    <path d="M112.869474,10.1573684 L111.213158,10.1573684 L111.213158,5.92578947 C111.213158,4.59157895 110.714211,3.92368421 109.714737,3.92368421 C108.947368,3.92368421 108.423158,4.31052632 108.135789,5.08421053 C108.086842,5.24684211 108.058421,5.44578947 108.058421,5.67947368 L108.058421,10.1557895 L106.405263,10.1557895 L106.405263,-0.701052632 L108.058421,-0.701052632 L108.058421,3.78473684 L108.09,3.78473684 C108.611053,2.96842105 109.357895,2.56105263 110.325789,2.56105263 C111.011053,2.56105263 111.577895,2.78526316 112.027895,3.23526316 C112.588421,3.79578947 112.869474,4.62947368 112.869474,5.73157895 L112.869474,10.1573684 L112.869474,10.1573684 Z"></path>
                    <path d="M121.905789,6.08368421 C121.905789,6.38052632 121.883684,6.63 121.844211,6.83368421 L116.881579,6.83368421 C116.903684,7.56947368 117.140526,8.13 117.6,8.51842105 C118.02,8.86578947 118.561579,9.03947368 119.224737,9.03947368 C119.958947,9.03947368 120.628421,8.92263158 121.231579,8.68736842 L121.490526,9.83684211 C120.784737,10.1431579 119.954211,10.2963158 118.992632,10.2963158 C117.84,10.2963158 116.932105,9.95684211 116.275263,9.27789474 C115.615263,8.59894737 115.288421,7.68789474 115.288421,6.54473684 C115.288421,5.42210526 115.593158,4.48736842 116.207368,3.74210526 C116.848421,2.94631579 117.715263,2.54842105 118.809474,2.54842105 C119.88,2.54842105 120.693158,2.94631579 121.242632,3.74210526 C121.686316,4.37368421 121.905789,5.15526316 121.905789,6.08368421 L121.905789,6.08368421 Z M120.326842,5.65578947 C120.339474,5.16473684 120.230526,4.74157895 120.006316,4.38473684 C119.718947,3.92526316 119.281579,3.69473684 118.689474,3.69473684 C118.149474,3.69473684 117.708947,3.91894737 117.372632,4.36894737 C117.097895,4.72736842 116.935263,5.15526316 116.881579,5.65578947 L120.326842,5.65578947 L120.326842,5.65578947 Z"></path>
                </g>
            </g>
        </g>
    </g>
</svg>