<?xml version="1.0" encoding="UTF-8" standalone="no"?>
<svg width="800px" height="800px" viewBox="0 0 800 800" version="1.1" xmlns="http://www.w3.org/2000/svg" xmlns:xlink="http://www.w3.org/1999/xlink">
    <!-- Generator: Sketch 3.6 (26304) - http://www.bohemiancoding.com/sketch -->
    <g id="Page-1"  fill="none" fill-rule="evenodd">
        <g id="Artboard-23">
            <rect id="Rectangle-1-Copy" x="0" y="-4" width="800" height="800"></rect>
            <path d="M477,551.181687 L477,356.542585 C468.81532,342.559592 439.719585,328.561087 407.154437,323.000001 C411.60216,323.000001 416.747767,323.000001 422.859375,323.000001 C489.409687,323.000001 543.359375,376.949688 543.359375,443.500001 C543.359375,490.57969 516.359864,531.353304 477,551.181687 Z M427.679294,593.924282 C437.853997,598.524156 451.625184,602.375839 469.214286,602.375839 C471.981171,602.375839 474.572704,602.42975 477,602.530739 L477,645 L470.400925,645 C464.843573,645 458.519626,640.876201 456.282304,635.789238 L448.458333,618 L305.403615,618 L297.624117,635.774092 C295.393956,640.86942 289.075749,645 283.519539,645 L277,645 L277,593.5 L277,322.23747 L259.924383,303.03563 C254.995582,297.493105 257.017985,293 264.428037,293 L479.285714,293 L479.285714,303.935273 C534.446684,326.258696 573.359375,380.335075 573.359375,443.500001 C573.359375,525.006167 508.567549,591.379392 427.67929,593.924282 Z M371,209.066643 L371,198.19698 C359.506998,195.2989 351,184.892908 351,172.5 C351,157.864454 362.864454,146 377.5,146 C392.135546,146 404,157.864454 404,172.5 C404,184.892908 395.493002,195.2989 384,198.19698 L384,209.090972 C435.962197,210.467005 477,227.735276 477,280 C476.999997,280 275.598953,280 277.007352,280 C277.007352,227.402908 318.568759,210.248792 371,209.066643 Z M378.571429,488.281879 C411.945207,488.281879 439,461.238676 439,427.879195 C439,394.519713 411.945207,367.47651 378.571429,367.47651 C345.19765,367.47651 318.142857,394.519713 318.142857,427.879195 C318.142857,461.238676 345.19765,488.281879 378.571429,488.281879 Z" fill="#FFFFFF"></path>
        </g>
    </g>
</svg>