<?xml version="1.0" encoding="UTF-8" standalone="no"?>
<svg width="800px" height="800px" viewBox="0 0 800 800" version="1.1" xmlns="http://www.w3.org/2000/svg" xmlns:xlink="http://www.w3.org/1999/xlink">
    <!-- Generator: Sketch 3.6 (26304) - http://www.bohemiancoding.com/sketch -->
    <title>180 - iPhone 6 Plus Copy 15</title>
    <desc>Created with Sketch.</desc>
    <defs></defs>
    <g id="Page-1" stroke="none" stroke-width="1" fill="none" fill-rule="evenodd">
        <rect id="Rectangle-1" x="0" y="0" width="800" height="800"></rect>
        <g id="Group" transform="translate(151.000000, 239.000000)">
            <path d="M406.887732,258.423312 C466.414916,252.391655 528.290323,213.444948 528.290323,151.037776 C528.290323,82.802482 463.322581,77.6848349 430.83871,82.8024819 C398.354839,87.920129 422.290323,118.626011 422.290323,118.626011 C422.290323,118.626011 495.806452,97.2352948 495.806452,152.743658 C495.806452,197.576014 438.132308,215.697817 410.753221,221.774757 C410.624966,222.068553 410.481634,222.373957 410.322581,222.691358 C405.434116,232.446584 404.913633,248.30341 406.887732,258.423312 Z M380.600951,258.892675 C379.101787,258.788047 377.610766,258.66 376.129032,258.508364 C376.129032,258.508362 381.684858,249.269207 387.014148,240.406773 L380.600946,258.892675 Z" id="Combined-Shape" fill="#FFFFFF"></path>
            <path d="M220.548387,345.32782 C367.580645,345.327817 441.096774,212.686482 441.096774,91.1513492 C441.096774,-30.3837831 0,-30.3837831 0,91.1513492 C0,212.686482 73.516129,345.327822 220.548387,345.32782 Z" id="Oval-5" fill="#FFFFFF"></path>
            <ellipse id="Oval-6" fill="#402A0E" cx="220.548387" cy="81.8823529" rx="186.354839" ry="58"></ellipse>
            <ellipse id="Oval-3" fill="#0C673A" cx="222.258065" cy="238.823529" rx="64.9677419" ry="64.8235294"></ellipse>
        </g>
    </g>
</svg>