<?xml version="1.0" encoding="UTF-8" standalone="no"?>
<svg width="800px" height="800px" viewBox="0 0 800 800" version="1.1" xmlns="http://www.w3.org/2000/svg" xmlns:xlink="http://www.w3.org/1999/xlink">
    <!-- Generator: Sketch 3.6 (26304) - http://www.bohemiancoding.com/sketch -->
    <title>Artboard 23 Copy</title>
    <desc>Created with Sketch.</desc>
    <defs></defs>
    <g id="Page-1" stroke="none" stroke-width="1" fill="none" fill-rule="evenodd">
        <g id="Artboard-23-Copy">
            <rect id="Rectangle-1-Copy-2" x="0" y="0" width="800" height="800"></rect>
            <g id="Group" transform="translate(256.000000, 146.000000)">
                <path d="M21,436 L60.8065263,445.947368 L41.6241173,489.774092 C39.3939558,494.86942 33.0757493,499 27.519539,499 L21,499 L21,436 Z" id="Rectangle-9-Copy" fill="#3D3A36"></path>
                <rect id="Rectangle-3-Copy" fill="#3D3A36" x="114" y="46" width="13" height="53"></rect>
                <circle id="Oval-3" fill="#3D3A36" cx="120.5" cy="26.5" r="26.5"></circle>
                <path d="M221,459 L221,147 L21,147 L21,459 C21.2308812,466.225601 27.1475662,472 34.4136177,472 L207.586382,472 C214.845082,472 220.768589,466.217798 220.993383,459 Z M220,134 C220,79.4104427 175.230121,63 120.003676,63 C64.7772315,63 20.0073524,79.4104427 20.0073524,134 C18.5989535,134 219.999997,134 220,134 Z" id="Combined-Shape-Copy" fill="#FFFFFF"></path>
                <path d="M223,157.912365 C278.190971,180.221683 317.1303,234.313458 317.1303,297.500001 C317.1303,361.447109 277.247916,416.079188 221.000002,437.879384 L221,499 L214.400925,499 C208.843573,499 202.519626,494.876201 200.282304,489.789238 L181.580305,447.266798 L169,448 L169,447.981723 C168.21682,447.993812 167.432188,447.999919 166.646148,448 L21,448 L21,418 L166.644487,418 C233.188279,417.992334 287.1303,364.045584 287.1303,297.500001 C287.1303,230.949688 233.180613,177.000001 166.6303,177.000001 C127.963962,177.000001 127.963962,177.000001 98.7318449,177 C59.3309399,177 57.3801132,177 30.8067432,177 L21,177 L3.60519056,157.104358 C-1.27383939,151.523875 0.787417194,147 8.19563073,147 L223,147 L223,157.912365 Z" id="Combined-Shape" fill="#3D3A36"></path>
                <ellipse id="Oval-3-Copy" fill="#0C673A" cx="122.428571" cy="281.402685" rx="60.4285714" ry="60.4026846"></ellipse>
            </g>
        </g>
    </g>
</svg>