<?xml version="1.0" encoding="UTF-8"?>
<svg width="400px" height="400px" viewBox="0 0 400 400" version="1.1" xmlns="http://www.w3.org/2000/svg" xmlns:xlink="http://www.w3.org/1999/xlink">
    <!-- Generator: Sketch 64 (93537) - https://sketch.com -->
    <title>blix-logo</title>
    <desc>Created with Sketch.</desc>
    <g id="Tutorial-Screens" stroke="none" stroke-width="1" fill="none" fill-rule="evenodd">
        <g id="blix-logo">
            <rect id="background" fill="#FF5500" x="0" y="0" width="400" height="400"></rect>
            <path d="M79.043377,146.394009 C84.0389943,146.394009 88.0867539,150.440384 88.0867539,155.431839 L88.0867539,155.431839 L88.0857459,202.783029 C105.793366,189.506835 131.078884,190.906882 147.212013,207.003734 L147.212013,207.003734 L147.188,206.98 L147.690142,207.489342 C164.665744,224.984916 164.661544,252.782723 147.690014,270.274064 L147.192,270.778 L147.212013,270.759542 L147.212013,270.759542 L147.189,270.782 L146.678477,271.28333 C130.446054,286.962941 105.3736,288.132653 87.8412313,274.796349 C86.8967775,278.775151 83.316122,281.739632 79.043377,281.739632 L79.043377,281.739632 L78.776679,281.735779 C73.9044875,281.594817 70,277.604125 70,272.701803 L70,272.701803 L70,155.431839 C70,150.444635 74.0488578,146.394009 79.043377,146.394009 Z M216.954876,198.277951 C221.950493,198.277951 225.998253,202.330255 225.998253,207.329025 L225.998253,207.329025 L225.998253,272.690011 C225.998253,277.687278 221.949395,281.741085 216.954876,281.741085 L216.954876,281.741085 L216.688178,281.737226 C211.815986,281.596058 207.911499,277.599517 207.911499,272.690011 L207.911499,272.690011 L207.911499,207.329025 C207.911499,202.331757 211.960357,198.277951 216.954876,198.277951 Z M180.781368,146.395462 C185.776985,146.395462 189.824745,150.441836 189.824745,155.433292 L189.824745,155.433292 L189.824745,272.703256 C189.824745,277.690459 185.775887,281.741085 180.781368,281.741085 L180.781368,281.741085 L180.51467,281.737232 C175.642478,281.59627 171.737991,277.605578 171.737991,272.703256 L171.737991,272.703256 L171.737991,155.433292 C171.737991,150.446088 175.786849,146.395462 180.781368,146.395462 Z M244.965016,198.860772 C248.160109,195.880728 253.163108,195.942329 256.271818,199.044048 L256.271818,199.044048 L284.779,227.488 L313.288588,199.044048 C316.390941,195.948671 321.40177,195.882726 324.59549,198.860889 L324.762,199.022 L324.891264,199.155982 C327.814477,202.276062 327.817533,207.124041 324.901867,210.236845 L324.707576,210.437358 L296.199,238.881 L324.707576,267.325917 C327.809929,270.421294 327.876022,275.420855 324.891148,278.607394 L324.749,278.753 L324.59539,278.902503 C321.468278,281.819142 316.609373,281.822191 313.489554,278.913081 L313.288588,278.719228 L284.78,250.275 L256.271818,278.719228 C253.169465,281.814605 248.158636,281.880549 244.964916,278.902386 L244.814,278.757 L244.669142,278.607294 C241.74593,275.487214 241.742873,270.639235 244.65854,267.526431 L244.85283,267.325917 L273.36,238.881 L244.85283,210.437358 C241.750477,207.341981 241.684384,202.34242 244.669259,199.155882 L244.8,199.019 Z M115.213973,211.81106 C100.342792,211.81106 88.2662001,223.749213 88.0858877,238.544295 L88.086,239.215 L88.0874766,239.327822 C88.3270571,254.071223 100.380251,265.94931 115.213973,265.94931 C130.19753,265.94931 142.344104,253.83005 142.344104,238.880185 C142.344104,223.93032 130.19753,211.81106 115.213973,211.81106 Z M253.306962,102.726601 C271.022897,85.6145484 299.289037,85.7888774 316.789952,103.250439 L316.758,103.22 L317.244717,103.712739 C334.222097,121.21029 334.222375,149.022741 317.244726,166.520573 L316.719698,167.052977 L284.781659,198.919199 L252.84362,167.052977 C235.166221,149.415329 235.165928,120.818284 252.84362,103.180343 L252.804,103.22 Z M216.954876,159.930024 C223.198025,159.930024 228.259097,164.979716 228.259097,171.208826 C228.259097,177.437937 223.198025,182.487628 216.954876,182.487628 C210.711727,182.487628 205.650655,177.437937 205.650655,171.208826 C205.650655,164.979716 210.711727,159.930024 216.954876,159.930024 Z M284.781659,108.047536 C269.798102,108.047536 257.651528,120.166796 257.651528,135.11666 C257.651528,150.066525 269.798102,162.185785 284.781659,162.185785 C299.765217,162.185785 311.91179,150.066525 311.91179,135.11666 C311.91179,120.166796 299.765217,108.047536 284.781659,108.047536 Z" id="blixlogo" fill="#FFFFFF"></path>
        </g>
    </g>
</svg>