<?xml version="1.0" encoding="UTF-8" standalone="no"?>
<svg width="25px" height="24px" viewBox="0 0 25 24" version="1.1" xmlns="http://www.w3.org/2000/svg" xmlns:xlink="http://www.w3.org/1999/xlink" xmlns:sketch="http://www.bohemiancoding.com/sketch/ns">
    <!-- Generator: Sketch 3.1.1 (8761) - http://www.bohemiancoding.com/sketch -->
    <title>icon-small-privacy-friends</title>
    <desc>Created with Sketch.</desc>
    <defs></defs>
    <g id="List-View" stroke="none" stroke-width="1" fill="none" fill-rule="evenodd" sketch:type="MSPage">
        <g id="icon-small-privacy-friends" sketch:type="MSLayerGroup" fill="#000000">
            <path d="M17.9455283,20 L23.4586875,20 C24.0122645,20 24.4104378,19.5469637 24.3496914,19.0029699 L23.6790227,12.9970301 C23.6175336,12.4463856 23.1207063,12 22.5591671,12 L16.6764183,12 C17.0671509,12.581996 17.3224167,13.2565088 17.3888634,13.9756139 L17.9455283,20 L17.9455283,20 Z M18.2076255,10 C19.8644797,10 21.2076255,8.65685425 21.2076255,7 C21.2076255,5.34314575 19.8644797,4 18.2076255,4 C16.5507712,4 15.2076255,5.34314575 15.2076255,7 C15.2076255,8.65685425 16.5507712,10 18.2076255,10 Z M8.15091545,10 C10.9123392,10 13.1509155,7.76142375 13.1509155,5 C13.1509155,2.23857625 10.9123392,0 8.15091545,0 C5.3894917,0 3.15091545,2.23857625 3.15091545,5 C3.15091545,7.76142375 5.3894917,10 8.15091545,10 Z M3.00670854,12 C1.90076222,12 0.916629648,12.8823887 0.80752624,13.9815559 L0.00978426265,22.0184441 C-0.0988442693,23.1128272 0.709652409,24 1.80800914,24 L14.4938703,24 C15.595631,24 16.4011986,23.1176113 16.2920952,22.0184441 L15.4943532,13.9815559 C15.3857247,12.8871728 14.4035447,12 13.2951709,12 L3.00670854,12 Z" id="Oval-47" sketch:type="MSShapeGroup"></path>
        </g>
    </g>
</svg>