<?xml version="1.0" encoding="UTF-8" standalone="no"?>
<svg width="60px" height="60px" viewBox="0 0 60 60" version="1.1" xmlns="http://www.w3.org/2000/svg" xmlns:xlink="http://www.w3.org/1999/xlink" xmlns:sketch="http://www.bohemiancoding.com/sketch/ns">
    <!-- Generator: Sketch 3.1.1 (8761) - http://www.bohemiancoding.com/sketch -->
    <title>thumbnail-placeholder</title>
    <desc>Created with Sketch.</desc>
    <defs>
        <rect id="path-1" x="0" y="0" width="58" height="58" rx="2"></rect>
        <linearGradient x1="50%" y1="24.2854421%" x2="3.14543968%" y2="96.1294779%" id="linearGradient-3">
            <stop stop-color="#000000" stop-opacity="0" offset="0%"></stop>
            <stop stop-color="#000000" stop-opacity="0.4" offset="100%"></stop>
        </linearGradient>
    </defs>
    <g id="Page-1" stroke="none" stroke-width="1" fill="none" fill-rule="evenodd" sketch:type="MSPage">
        <g id="thumbnail-placeholder" sketch:type="MSLayerGroup" transform="translate(1.000000, 1.000000)">
            <mask id="mask-2" sketch:name="background" fill="white">
                <use xlink:href="#path-1"></use>
            </mask>
            <use id="background" fill="#F1EFE8" sketch:type="MSShapeGroup" xlink:href="#path-1"></use>
            <path d="M26.0605907,6.93940929 L-1.77635684e-14,33 L-1.25390327e-07,41.9999999 L6.50000001,35.4999998 L6.50000001,35.4999998 L30.0000002,58.9999997 L37,58.9999993 L37,59 L43.9999999,59 L44,24.8788186 L58.0605901,38.9394088 L58.034161,28.965838 L44,14.9316769 L44,3.38928885e-12 L37,4.05009359e-12 L37,7.93167696 L29.0341614,-0.0341616505 L18.9990376,-0.122143799 L26.0605907,6.93940929 Z M30.5605905,11.4394091 L11.4999999,30.4999999 L37,56 L37,17.8788186 L30.5605905,11.4394091 Z" id="streets" stroke="#DBDAD6" fill="#FFFFFF" sketch:type="MSShapeGroup" mask="url(#mask-2)"></path>
            <path d="M29,39 L53,27.0843373 L36.4482759,16 L29,39 Z" id="pinshadow" fill-opacity="0.699999988" fill="url(#linearGradient-3)" sketch:type="MSShapeGroup" mask="url(#mask-2)"></path>
            <g id="pin" mask="url(#mask-2)" sketch:type="MSShapeGroup">
                <g transform="translate(13.000000, 7.000000)">
                    <rect id="pinbg" fill="#FFFFFF" transform="translate(16.000000, 16.000000) rotate(-45.000000) translate(-16.000000, -16.000000) " x="5" y="5" width="22" height="22"></rect>
                    <circle id="color" fill="#4A5059" cx="16" cy="16" r="8"></circle>
                </g>
            </g>
        </g>
    </g>
</svg>
