<?xml version="1.0" encoding="UTF-8" standalone="no"?>
<svg width="400px" height="400px" viewBox="0 0 400 400" version="1.1" xmlns="http://www.w3.org/2000/svg" xmlns:xlink="http://www.w3.org/1999/xlink">
    <!-- Generator: Sketch 3.6 (26304) - http://www.bohemiancoding.com/sketch -->
    <title>Group 5</title>
    <desc>Created with Sketch.</desc>
    <defs></defs>
    <g id="Home" stroke="none" stroke-width="1" fill="none" fill-rule="evenodd">
        <g id="Group-5">
            <rect id="Rectangle-29" x="0" y="0" width="400" height="400"></rect>
            <g id="blixlogo-copy" transform="translate(100.000000, 116.000000)" fill="#FFFFFF">
                <path d="M163.239822,105.291628 L184.931487,83.565411 C187.323703,81.1693845 191.219025,81.1596769 193.615609,83.5600778 C196.007315,85.9555941 196.009808,89.8546848 193.610284,92.2580309 L171.918619,113.984247 L193.610284,135.710464 C196.0025,138.10649 196.012191,142.008016 193.615609,144.408417 C191.223901,146.803933 187.331011,146.80643 184.931487,144.403084 L163.239822,122.676867 L141.548157,144.403084 C139.155941,146.79911 135.26062,146.808818 132.864037,144.408417 C130.47233,142.012901 130.469838,138.11381 132.869362,135.710464 L154.561027,113.984247 L132.869362,92.2580309 C130.477146,89.8620044 130.467454,85.9604785 132.864037,83.5600778 C135.255744,81.1645613 139.148633,81.1620647 141.548157,83.565411 L163.239822,105.291628 L163.239822,105.291628 Z M13.560564,141.386444 C27.0314522,151.674103 46.3535647,150.65543 58.6658003,138.323583 C72.0866667,124.881339 72.0896178,103.090111 58.6658003,89.6449117 C46.4111754,77.3707671 27.2114947,76.2968121 13.7465114,86.4398347 L13.7465114,50.315537 C13.7465114,46.507265 10.6615259,43.4200507 6.87325568,43.4200507 C3.07726139,43.4200507 0,46.5105088 0,50.315537 L0,139.787621 C0,143.595892 3.08498546,146.683107 6.87325568,146.683107 C10.1202748,146.683107 12.8414146,144.421894 13.560564,141.386444 L13.560564,141.386444 L13.560564,141.386444 Z M13.7465114,113.677421 C13.9097132,102.412252 23.0780007,93.3305278 34.3640652,93.3305278 C45.7520481,93.3305278 54.9838323,102.577017 54.9838323,113.983139 C54.9838323,125.389261 45.7520481,134.63575 34.3640652,134.63575 C23.0780007,134.63575 13.9097132,125.554026 13.7465114,114.288857 L13.7465114,113.677421 L13.7465114,113.677421 L13.7465114,113.677421 Z M138.940301,10.4765686 C125.519434,23.9188126 125.516483,45.7100406 138.940301,59.1552401 L163.240929,83.4945758 L187.541558,59.1552401 C200.962423,45.7129962 200.965375,23.9217681 187.541558,10.4765686 C174.120691,-2.96567534 152.364118,-2.96863092 138.940301,10.4765686 L138.940301,10.4765686 Z M163.240929,55.4685156 C174.628912,55.4685156 183.860696,46.2220266 183.860696,34.8159044 C183.860696,23.4097822 174.628912,14.1632931 163.240929,14.1632931 C151.852946,14.1632931 142.621162,23.4097822 142.621162,34.8159044 C142.621162,46.2220266 151.852946,55.4685156 163.240929,55.4685156 L163.240929,55.4685156 Z M111.690405,83.0053306 C107.894411,83.0053306 104.817149,86.0766955 104.817149,89.8805897 L104.817149,139.808956 C104.817149,143.606057 107.902135,146.684215 111.690405,146.684215 C115.486399,146.684215 118.56366,143.61285 118.56366,139.808956 L118.56366,89.8805897 C118.56366,86.0834889 115.478675,83.0053306 111.690405,83.0053306 L111.690405,83.0053306 Z M84.1973821,43.4211591 C80.4013878,43.4211591 77.3241264,46.5116172 77.3241264,50.3166453 L77.3241264,139.788729 C77.3241264,143.597001 80.4091119,146.684215 84.1973821,146.684215 C87.9933764,146.684215 91.0706378,143.593757 91.0706378,139.788729 L91.0706378,50.3166453 C91.0706378,46.5083733 87.9856522,43.4211591 84.1973821,43.4211591 L84.1973821,43.4211591 Z M111.690405,70.957974 C116.435398,70.957974 120.281974,67.1052702 120.281974,62.3527194 C120.281974,57.6001683 116.435398,53.7474647 111.690405,53.7474647 C106.945412,53.7474647 103.098835,57.6001683 103.098835,62.3527194 C103.098835,67.1052702 106.945412,70.957974 111.690405,70.957974 L111.690405,70.957974 Z" id="blixlogo"></path>
            </g>
        </g>
    </g>
</svg>