<?xml version="1.0" encoding="UTF-8" standalone="no"?>
<svg width="20px" height="25px" viewBox="0 0 20 25" version="1.1" xmlns="http://www.w3.org/2000/svg" xmlns:xlink="http://www.w3.org/1999/xlink" xmlns:sketch="http://www.bohemiancoding.com/sketch/ns">
    <!-- Generator: Sketch 3.1.1 (8761) - http://www.bohemiancoding.com/sketch -->
    <title>icon-directions</title>
    <desc>Created with Sketch.</desc>
    <defs></defs>
    <g id="List-View" stroke="none" stroke-width="1" fill="none" fill-rule="evenodd" sketch:type="MSPage">
        <g id="icon-directions" sketch:type="MSLayerGroup" fill="#000000">
            <path d="M4,11.5 L4,5 L0,5 L5,1.67051439e-09 L10,5 L6,5 L6,9.25 C5,9.75 4,11.5 4,11.5 Z" id="Path-217" opacity="0.400000006" fill-opacity="0.5" sketch:type="MSShapeGroup"></path>
            <path d="M13.9975267,8.5 L11.9984063,8.5 C7.58100847,8.5 4,12.0802543 4,16.5083315 L4,23.9926891 C4,24.5490115 4.44386482,25 5,25 L5,25 C5.55228475,25 6,24.5501437 6,24.0033563 L6,16.502373 C6,13.1873538 8.68613923,10.4999998 12.0018986,10.4999998 L14,10.4999998 L14,12.9962983 C14,14.0992042 14.6650298,14.3844197 15.4677651,13.6494772 L20,9.50000022 L15.4143185,4.91431855 C14.633212,4.13321198 13.9995578,4.39389979 13.9990083,5.5048815 L13.9975267,8.5 Z" id="Rectangle-400" sketch:type="MSShapeGroup"></path>
        </g>
    </g>
</svg>